<?xml version="1.0" encoding="UTF-8"?>
<svg width="190px" height="50px" viewBox="0 0 190 50" version="1.1" xmlns="http://www.w3.org/2000/svg" xmlns:xlink="http://www.w3.org/1999/xlink">
    <!-- Generator: Sketch 51.2 (57519) - http://www.bohemiancoding.com/sketch -->
    <title>Pantriful</title>
    <desc>Created with Sketch.</desc>
    <defs></defs>
    <g id="Logo" stroke="none" stroke-width="1" fill="none" fill-rule="evenodd">
        <g id="Desktop-HD" transform="translate(-1107.000000, -51.000000)" fill="#E55007">
            <path d="M1128.4,57.2 C1128.7,56.0999945 1128.7,55.4333345 1128.4,55.2 C1128.1,54.9666655 1127.53334,54.85 1126.7,54.85 C1125.93333,54.85 1125.10834,54.9083327 1124.225,55.025 C1123.34166,55.1416673 1122.45,55.3166655 1121.55,55.55 C1120.65,55.7833345 1119.75834,56.0833315 1118.875,56.45 C1117.99166,56.8166685 1117.18334,57.2499975 1116.45,57.75 C1115.75,58.216669 1115.01667,58.7416638 1114.25,59.325 C1113.48333,59.9083363 1112.79167,60.5249967 1112.175,61.175 C1111.55833,61.8250033 1111.05,62.516663 1110.65,63.25 C1110.25,63.983337 1110.05,64.7333295 1110.05,65.5 C1110.05,66.5333385 1110.36666,67.2916642 1111,67.775 C1111.63334,68.2583358 1112.26666,68.5 1112.9,68.5 C1113.3,68.5 1113.64167,68.3750012 1113.925,68.125 C1114.20833,67.8749988 1114.43333,67.616668 1114.6,67.35 C1114.93333,66.8499975 1115.30833,66.466668 1115.725,66.2 C1116.14167,65.933332 1116.68333,65.8 1117.35,65.8 C1118.05,65.8333335 1118.60833,66.0666645 1119.025,66.5 C1119.44167,66.9333355 1119.65,67.516663 1119.65,68.25 C1119.65,69.3500055 1119.20834,70.2499965 1118.325,70.95 C1117.44166,71.6500035 1116.28334,72 1114.85,72 C1113.95,72 1113.075,71.8500015 1112.225,71.55 C1111.375,71.2499985 1110.61667,70.8083362 1109.95,70.225 C1109.28333,69.6416637 1108.74167,68.9083378 1108.325,68.025 C1107.90833,67.1416622 1107.7,66.100006 1107.7,64.9 C1107.7,63.299992 1108.05833,61.7166745 1108.775,60.15 C1109.49167,58.5833255 1110.68332,57.166673 1112.35,55.9 C1113.51667,54.9999955 1114.84166,54.316669 1116.325,53.85 C1117.80834,53.383331 1119.46666,53.050001 1121.3,52.85 C1123.13334,52.649999 1125.13332,52.5416667 1127.3,52.525 C1129.46668,52.5083332 1131.81665,52.5 1134.35,52.5 L1137.325,52.5 C1138.37501,52.5 1139.42499,52.5583327 1140.475,52.675 C1141.52501,52.7916673 1142.56666,53.016665 1143.6,53.35 C1144.63334,53.683335 1145.6,54.18333 1146.5,54.85 C1147.53334,55.6166705 1148.33333,56.5499945 1148.9,57.65 C1149.46667,58.7500055 1149.75,60.0166595 1149.75,61.45 C1149.75,62.650006 1149.49167,63.8916603 1148.975,65.175 C1148.45833,66.4583397 1147.67501,67.6249947 1146.625,68.675 C1145.57499,69.7250052 1144.25001,70.5916632 1142.65,71.275 C1141.04999,71.9583368 1139.16668,72.3 1137,72.3 L1135.7,72.3 C1135.2,72.3 1134.66667,72.2833335 1134.1,72.25 C1133.53333,72.2166665 1132.975,72.1583337 1132.425,72.075 C1131.875,71.9916662 1131.4,71.883334 1131,71.75 L1128.6,80.65 C1128.5,81.0833355 1128.375,81.6166635 1128.225,82.25 C1128.075,82.8833365 1127.8,83.4833305 1127.4,84.05 C1127,84.6166695 1126.43334,85.0916648 1125.7,85.475 C1124.96666,85.8583352 1123.96667,86.0333335 1122.7,86 C1121.9,85.9666665 1121.325,85.9250002 1120.975,85.875 C1120.625,85.8249998 1120.44167,85.633335 1120.425,85.3 C1120.40833,84.966665 1120.53333,84.4166705 1120.8,83.65 C1121.06667,82.8833295 1121.43333,81.766674 1121.9,80.3 L1128.4,57.2 Z M1131.65,69.05 C1131.58333,69.316668 1131.63333,69.5416657 1131.8,69.725 C1131.96667,69.9083342 1132.225,70.0583328 1132.575,70.175 C1132.925,70.2916673 1133.34166,70.383333 1133.825,70.45 C1134.30834,70.516667 1134.81666,70.55 1135.35,70.55 C1137.21668,70.55 1138.69999,70.1250042 1139.8,69.275 C1140.90001,68.4249957 1141.725,67.4583387 1142.275,66.375 C1142.825,65.2916613 1143.175,64.2583383 1143.325,63.275 C1143.475,62.2916618 1143.55,61.666668 1143.55,61.4 C1143.55,60.466662 1143.39167,59.5833375 1143.075,58.75 C1142.75833,57.9166625 1142.325,57.1833365 1141.775,56.55 C1141.225,55.9166635 1140.56667,55.4166685 1139.8,55.05 C1139.03333,54.6833315 1138.2,54.5 1137.3,54.5 C1136.86666,54.5 1136.50833,54.5249997 1136.225,54.575 C1135.94167,54.6250002 1135.71667,54.8333315 1135.55,55.2 L1131.65,69.05 Z M1170.65,64.4 C1171.01667,64.4 1171.15,64.599998 1171.05,65 C1170.85,65.533336 1170.575,66.299995 1170.225,67.3 C1169.875,68.300005 1169.51667,69.333328 1169.15,70.4 C1168.78333,71.466672 1168.44167,72.466662 1168.125,73.4 C1167.80833,74.333338 1167.6,74.999998 1167.5,75.4 C1167.43333,75.600001 1167.3,76.0583297 1167.1,76.775 C1166.9,77.4916702 1166.68333,78.249996 1166.45,79.05 C1166.21667,79.850004 1166.00833,80.5916632 1165.825,81.275 C1165.64167,81.9583368 1165.55,82.399999 1165.55,82.6 C1165.55,83.000002 1165.75,83.2 1166.15,83.2 C1166.35,83.2 1166.575,83.3249987 1166.825,83.575 C1167.075,83.8250012 1167.14167,84.1249983 1167.025,84.475 C1166.90833,84.8250017 1166.49167,85.1916648 1165.775,85.575 C1165.05833,85.9583353 1163.83334,86.2666655 1162.1,86.5 C1161.33333,86.6000005 1160.8,86.4583353 1160.5,86.075 C1160.2,85.6916648 1160.05,85.300002 1160.05,84.9 C1160.05,84.7333325 1160.075,84.5333345 1160.125,84.3 C1160.175,84.0666655 1160.26667,83.716669 1160.4,83.25 C1160.53333,82.783331 1160.725,82.1666705 1160.975,81.4 C1161.225,80.6333295 1161.56666,79.6333395 1162,78.4 L1161.55,78.15 C1161.05,78.9166705 1160.475,79.7749953 1159.825,80.725 C1159.175,81.6750047 1158.43334,82.583329 1157.6,83.45 C1156.76666,84.316671 1155.85001,85.0416637 1154.85,85.625 C1153.85,86.2083363 1152.76667,86.5 1151.6,86.5 C1151.26667,86.5 1150.9,86.3916677 1150.5,86.175 C1150.1,85.9583322 1149.725,85.6666685 1149.375,85.3 C1149.025,84.9333315 1148.73333,84.516669 1148.5,84.05 C1148.26667,83.583331 1148.15,83.1000025 1148.15,82.6 C1148.15,81.5666615 1148.31667,80.4000065 1148.65,79.1 C1148.98333,77.7999935 1149.44166,76.48334 1150.025,75.15 C1150.60834,73.81666 1151.31666,72.516673 1152.15,71.25 C1152.98334,69.983327 1153.89166,68.8666715 1154.875,67.9 C1155.85834,66.9333285 1156.90833,66.150003 1158.025,65.55 C1159.14167,64.949997 1160.29999,64.65 1161.5,64.65 C1162.63334,64.65 1163.48333,64.8416647 1164.05,65.225 C1164.61667,65.6083352 1165.06667,65.999998 1165.4,66.4 L1166.2,64.95 C1166.43333,64.5833315 1166.73333,64.4 1167.1,64.4 L1170.65,64.4 Z M1154.1,80.95 C1154.1,81.5166695 1154.2,81.9083323 1154.4,82.125 C1154.6,82.3416677 1154.9,82.45 1155.3,82.45 C1155.63333,82.45 1156.14166,82.1000035 1156.825,81.4 C1157.50834,80.6999965 1158.20833,79.8750048 1158.925,78.925 C1159.64167,77.9749953 1160.31666,77.0166715 1160.95,76.05 C1161.58334,75.0833285 1162.01667,74.3500025 1162.25,73.85 C1162.55,73.18333 1162.81667,72.4333375 1163.05,71.6 C1163.28333,70.7666625 1163.4,69.916671 1163.4,69.05 C1163.4,68.4833305 1163.15834,67.966669 1162.675,67.5 C1162.19166,67.033331 1161.7,66.8 1161.2,66.8 C1159.96666,66.8 1158.71667,67.933322 1157.45,70.2 C1156.18333,72.4333445 1155.30834,74.4749907 1154.825,76.325 C1154.34166,78.1750093 1154.1,79.7166605 1154.1,80.95 Z M1171.2,86 C1170.76666,86 1170.61667,85.8166685 1170.75,85.45 L1174.2,75.85 C1174.5,75.049996 1174.78333,74.2666705 1175.05,73.5 C1175.31667,72.7333295 1175.55,72.0250032 1175.75,71.375 C1175.95,70.7249968 1176.11667,70.1750023 1176.25,69.725 C1176.38333,69.2749977 1176.45,68.9666675 1176.45,68.8 C1176.45,68.266664 1176.23334,68 1175.8,68 C1175.7,68 1175.60833,67.8250017 1175.525,67.475 C1175.44167,67.1249983 1175.50833,66.7416688 1175.725,66.325 C1175.94167,65.9083313 1176.40833,65.5250018 1177.125,65.175 C1177.84167,64.8249982 1178.96666,64.65 1180.5,64.65 C1181.26667,64.65 1181.79167,64.8749978 1182.075,65.325 C1182.35833,65.7750023 1182.5,66.199998 1182.5,66.6 C1182.5,66.9666685 1182.26667,67.749994 1181.8,68.95 C1181.33333,70.150006 1180.76667,71.5333255 1180.1,73.1 L1180.55,73.45 C1180.91667,72.916664 1181.44166,72.150005 1182.125,71.15 C1182.80834,70.149995 1183.61666,69.1750047 1184.55,68.225 C1185.48334,67.2749952 1186.50833,66.4416702 1187.625,65.725 C1188.74167,65.0083298 1189.91666,64.65 1191.15,64.65 C1191.68334,64.65 1192.15,64.7583322 1192.55,64.975 C1192.95,65.1916677 1193.28333,65.466665 1193.55,65.8 C1193.81667,66.133335 1194.01667,66.499998 1194.15,66.9 C1194.28333,67.300002 1194.35,67.666665 1194.35,68 C1194.35,68.266668 1194.3,68.6166645 1194.2,69.05 C1194.1,69.4833355 1193.94167,70.0583297 1193.725,70.775 C1193.50833,71.4916702 1193.20834,72.383328 1192.825,73.45 C1192.44166,74.516672 1191.98334,75.816659 1191.45,77.35 C1190.85,79.0500085 1190.43333,80.2499965 1190.2,80.95 C1189.96667,81.6500035 1189.85,82.1499985 1189.85,82.45 C1189.85,83.0166695 1190.06666,83.3 1190.5,83.3 C1190.6,83.3 1190.75833,83.4083323 1190.975,83.625 C1191.19167,83.8416677 1191.225,84.1083317 1191.075,84.425 C1190.925,84.7416683 1190.475,85.0833315 1189.725,85.45 C1188.975,85.8166685 1187.68334,86.166665 1185.85,86.5 C1185.08333,86.633334 1184.55833,86.4750023 1184.275,86.025 C1183.99167,85.5749977 1183.85,85.1000025 1183.85,84.6 C1183.85,84.133331 1184.09166,83.1833405 1184.575,81.75 C1185.05834,80.3166595 1185.68333,78.500011 1186.45,76.3 C1186.65,75.7333305 1186.86667,75.11667 1187.1,74.45 C1187.33333,73.78333 1187.55,73.1333365 1187.75,72.5 C1187.95,71.8666635 1188.11667,71.3083357 1188.25,70.825 C1188.38333,70.3416643 1188.45,69.9833345 1188.45,69.75 C1188.45,69.016663 1188.11667,68.65 1187.45,68.65 C1187.15,68.65 1186.725,68.8749978 1186.175,69.325 C1185.625,69.7750023 1185.01667,70.3499965 1184.35,71.05 C1183.68333,71.7500035 1183.01667,72.533329 1182.35,73.4 C1181.68333,74.266671 1181.1,75.099996 1180.6,75.9 C1180.03333,76.766671 1179.525,77.5749962 1179.075,78.325 C1178.625,79.0750038 1178.31667,79.6666645 1178.15,80.1 L1176.2,85.7 C1176.13333,85.8000005 1176.05833,85.8749998 1175.975,85.925 C1175.89167,85.9750002 1175.71667,86 1175.45,86 L1171.2,86 Z M1207.1,66.15 L1212.15,66.15 C1212.41667,66.15 1212.5,66.2999985 1212.4,66.6 L1212.05,67.9 C1211.95,68.2000015 1211.73333,68.35 1211.4,68.35 L1206.35,68.35 L1202.25,79.35 C1202.11667,79.750002 1201.96667,80.216664 1201.8,80.75 C1201.63333,81.283336 1201.55,81.6999985 1201.55,82 C1201.55,82.266668 1201.64167,82.4916657 1201.825,82.675 C1202.00833,82.8583342 1202.28333,82.95 1202.65,82.95 C1202.81667,82.95 1203.04167,82.9916662 1203.325,83.075 C1203.60833,83.1583337 1203.85,83.266666 1204.05,83.4 C1204.25,83.533334 1204.34167,83.7083322 1204.325,83.925 C1204.30833,84.1416677 1204.1,84.3749988 1203.7,84.625 C1203.3,84.8750012 1202.65834,85.1583318 1201.775,85.475 C1200.89166,85.7916683 1199.65001,86.1333315 1198.05,86.5 C1197.61666,86.6000005 1197.24167,86.6000005 1196.925,86.5 C1196.60833,86.3999995 1196.34167,86.250001 1196.125,86.05 C1195.90833,85.849999 1195.74167,85.6250012 1195.625,85.375 C1195.50833,85.1249988 1195.45,84.900001 1195.45,84.7 C1195.45,84.1999975 1195.49167,83.683336 1195.575,83.15 C1195.65833,82.616664 1195.8,82.1000025 1196,81.6 L1200.55,68.35 L1196.65,68.35 C1196.31667,68.35 1196.21667,68.1666685 1196.35,67.8 L1196.65,66.5 C1196.75,66.2666655 1196.93333,66.15 1197.2,66.15 L1201.35,66.15 L1204.05,58.85 C1204.15,58.583332 1204.29167,58.4083338 1204.475,58.325 C1204.65833,58.2416663 1205.08333,58.1833335 1205.75,58.15 C1206.68334,58.083333 1207.49166,58.0583333 1208.175,58.075 C1208.85834,58.0916668 1209.43333,58.1 1209.9,58.1 C1210.06667,58.1 1210.19167,58.2083322 1210.275,58.425 C1210.35833,58.6416677 1210.36667,58.8333325 1210.3,59 L1207.1,66.15 Z M1210.55,86 C1210.11666,86 1209.96667,85.8500015 1210.1,85.55 L1212.5,77.45 C1212.7,76.7499965 1212.94167,75.9500045 1213.225,75.05 C1213.50833,74.1499955 1213.775,73.2750042 1214.025,72.425 C1214.275,71.5749957 1214.48333,70.8083367 1214.65,70.125 C1214.81667,69.4416633 1214.9,68.9833345 1214.9,68.75 C1214.9,68.483332 1214.825,68.2583342 1214.675,68.075 C1214.525,67.8916658 1214.31667,67.8 1214.05,67.8 C1213.98333,67.8 1213.81667,67.7500005 1213.55,67.65 C1213.28333,67.5499995 1213.175,67.3833345 1213.225,67.15 C1213.275,66.9166655 1213.6,66.5916687 1214.2,66.175 C1214.8,65.7583312 1215.94999,65.250003 1217.65,64.65 C1218.11667,64.4833325 1218.51667,64.4499995 1218.85,64.55 C1219.18333,64.6500005 1219.45,64.8166655 1219.65,65.05 C1219.85,65.2833345 1220,65.5499985 1220.1,65.85 C1220.2,66.1500015 1220.25,66.4166655 1220.25,66.65 C1220.25,67.116669 1220.04167,67.9249942 1219.625,69.075 C1219.20833,70.2250057 1218.7,71.6166585 1218.1,73.25 L1218.65,73.55 C1218.95,72.8499965 1219.36666,72.000005 1219.9,71 C1220.43334,69.999995 1221.03333,69.0250047 1221.7,68.075 C1222.36667,67.1249952 1223.11666,66.31667 1223.95,65.65 C1224.78334,64.98333 1225.65,64.65 1226.55,64.65 C1227.28334,64.65 1227.94166,64.8999975 1228.525,65.4 C1229.10834,65.9000025 1229.4,66.549996 1229.4,67.35 C1229.4,67.7833355 1229.325,68.199998 1229.175,68.6 C1229.025,69.000002 1228.83333,69.3499985 1228.6,69.65 C1228.36667,69.9500015 1228.125,70.1833325 1227.875,70.35 C1227.625,70.5166675 1227.38333,70.6 1227.15,70.6 C1226.45,70.6 1225.9,70.466668 1225.5,70.2 L1224.9,69.8 C1224.7,69.666666 1224.43333,69.6 1224.1,69.6 C1223.7,69.6 1223.25,69.8166645 1222.75,70.25 C1222.25,70.6833355 1221.75,71.2249968 1221.25,71.875 C1220.75,72.5250032 1220.275,73.2333295 1219.825,74 C1219.375,74.7666705 1219.01667,75.4666635 1218.75,76.1 C1218.48333,76.700003 1218.21667,77.366663 1217.95,78.1 C1217.68333,78.833337 1217.4,79.666662 1217.1,80.6 L1215.5,85.65 C1215.4,85.8833345 1215.18333,86 1214.85,86 L1210.55,86 Z M1236.45,83.35 C1237.05,83.35 1237.33333,83.516665 1237.3,83.85 C1237.26667,84.183335 1237.00834,84.5416647 1236.525,84.925 C1236.04166,85.3083352 1235.35834,85.666665 1234.475,86 C1233.59166,86.333335 1232.58334,86.5 1231.45,86.5 C1230.68333,86.5 1230.16667,86.3416682 1229.9,86.025 C1229.63333,85.7083317 1229.5,85.3666685 1229.5,85 C1229.5,84.7666655 1229.55833,84.4416687 1229.675,84.025 C1229.79167,83.6083312 1229.96667,83.033337 1230.2,82.3 C1230.43333,81.566663 1230.73333,80.666672 1231.1,79.6 C1231.46667,78.533328 1231.91666,77.233341 1232.45,75.7 L1233.8,71.75 C1234.03333,71.08333 1234.21667,70.5250023 1234.35,70.075 C1234.48333,69.6249978 1234.55,69.2500015 1234.55,68.95 C1234.55,68.5166645 1234.33334,68.3 1233.9,68.3 C1233.8,68.3 1233.65,68.2500005 1233.45,68.15 C1233.25,68.0499995 1233.08333,67.9083342 1232.95,67.725 C1232.81667,67.5416657 1232.75833,67.3333345 1232.775,67.1 C1232.79167,66.8666655 1232.99166,66.6083348 1233.375,66.325 C1233.75834,66.0416652 1234.35,65.7583347 1235.15,65.475 C1235.95,65.1916652 1237.08333,64.916668 1238.55,64.65 C1239.31667,64.4833325 1239.9,64.6166645 1240.3,65.05 C1240.7,65.4833355 1240.9,65.9499975 1240.9,66.45 C1240.9,67.0166695 1240.75833,67.7083292 1240.475,68.525 C1240.19167,69.3416707 1239.8,70.483326 1239.3,71.95 L1236.6,79.6 C1236.26667,80.533338 1236.05,81.2083313 1235.95,81.625 C1235.85,82.0416687 1235.8,82.383332 1235.8,82.65 C1235.8,82.8166675 1235.84167,82.9749992 1235.925,83.125 C1236.00833,83.2750008 1236.18333,83.35 1236.45,83.35 Z M1239.1,53.5 C1240.30001,53.5 1241.19166,53.7749972 1241.775,54.325 C1242.35834,54.8750028 1242.65,55.5333295 1242.65,56.3 C1242.65,56.700002 1242.55833,57.0916647 1242.375,57.475 C1242.19167,57.8583352 1241.94167,58.2083317 1241.625,58.525 C1241.30833,58.8416682 1240.94167,59.099999 1240.525,59.3 C1240.10833,59.500001 1239.66667,59.6 1239.2,59.6 C1238.23333,59.6 1237.45834,59.333336 1236.875,58.8 C1236.29166,58.266664 1236,57.5166715 1236,56.55 C1236,55.7833295 1236.3,55.0833365 1236.9,54.45 C1237.5,53.8166635 1238.23333,53.5 1239.1,53.5 Z M1247,66.15 C1247.36667,65.216662 1247.675,64.3250043 1247.925,63.475 C1248.175,62.6249957 1248.46666,61.7750043 1248.8,60.925 C1249.13333,60.0749957 1249.575,59.183338 1250.125,58.25 C1250.675,57.316662 1251.44999,56.3000055 1252.45,55.2 C1252.75,54.866665 1253.18333,54.4916688 1253.75,54.075 C1254.31667,53.6583313 1254.95833,53.2666685 1255.675,52.9 C1256.39167,52.5333315 1257.15,52.2250012 1257.95,51.975 C1258.75,51.7249988 1259.55,51.6 1260.35,51.6 C1261.41667,51.6 1262.325,51.7083322 1263.075,51.925 C1263.825,52.1416677 1264.43333,52.416665 1264.9,52.75 C1265.36667,53.083335 1265.7,53.4749977 1265.9,53.925 C1266.1,54.3750022 1266.2,54.8166645 1266.2,55.25 C1266.2,55.8833365 1265.95834,56.4583308 1265.475,56.975 C1264.99166,57.4916692 1264.38334,57.75 1263.65,57.75 C1262.58333,57.75 1261.83334,57.5083358 1261.4,57.025 C1260.96666,56.5416642 1260.66667,55.900004 1260.5,55.1 C1260.43333,54.833332 1260.29167,54.5250018 1260.075,54.175 C1259.85833,53.8249983 1259.46667,53.65 1258.9,53.65 C1258.06666,53.65 1257.35,54.049996 1256.75,54.85 C1256.15,55.650004 1255.625,56.6666605 1255.175,57.9 C1254.725,59.1333395 1254.325,60.483326 1253.975,61.95 C1253.625,63.416674 1253.28334,64.81666 1252.95,66.15 L1258.2,66.15 C1258.46667,66.15 1258.58333,66.2999985 1258.55,66.6 L1258.3,67.85 C1258.26667,68.183335 1258.08334,68.35 1257.75,68.35 L1252.55,68.35 C1252.28333,69.3833385 1251.95834,70.6499925 1251.575,72.15 C1251.19166,73.6500075 1250.79167,75.2249918 1250.375,76.875 C1249.95833,78.5250082 1249.51667,80.1749918 1249.05,81.825 C1248.58333,83.4750083 1248.13334,84.9499935 1247.7,86.25 C1247.1,88.050009 1246.35834,89.816658 1245.475,91.55 C1244.59166,93.283342 1243.59167,94.8416597 1242.475,96.225 C1241.35833,97.6083402 1240.13334,98.7249958 1238.8,99.575 C1237.46666,100.425004 1236.03334,100.85 1234.5,100.85 C1232.99999,100.85 1231.85,100.550003 1231.05,99.95 C1230.25,99.349997 1229.85,98.5666715 1229.85,97.6 C1229.85,96.8999965 1230.06666,96.283336 1230.5,95.75 C1230.93334,95.216664 1231.53333,94.95 1232.3,94.95 C1233.1,94.95 1233.71666,95.216664 1234.15,95.75 C1234.58334,96.283336 1234.83333,96.949996 1234.9,97.75 C1234.96667,98.3166695 1235.33333,98.6 1236,98.6 C1237.23334,98.6 1238.36666,97.533344 1239.4,95.4 C1240.43334,93.266656 1241.48333,89.933356 1242.55,85.4 L1246.55,68.35 L1242.35,68.35 C1242.05,68.35 1241.93333,68.2000015 1242,67.9 L1242.3,66.55 C1242.33333,66.416666 1242.38333,66.316667 1242.45,66.25 C1242.51667,66.183333 1242.65,66.15 1242.85,66.15 L1247,66.15 Z M1280.6,65.15 C1281.1,65.15 1281.26667,65.3666645 1281.1,65.8 L1277.6,76.5 C1276.93333,78.50001 1276.46667,79.9749953 1276.2,80.925 C1275.93333,81.8750048 1275.8,82.449999 1275.8,82.65 C1275.83333,82.8833345 1275.90833,83.0416662 1276.025,83.125 C1276.14167,83.2083338 1276.28333,83.25 1276.45,83.25 C1276.41667,83.25 1276.475,83.2666665 1276.625,83.3 C1276.775,83.3333335 1276.91667,83.3916663 1277.05,83.475 C1277.18333,83.5583338 1277.25,83.6749992 1277.25,83.825 C1277.25,83.9750007 1277.08334,84.1666655 1276.75,84.4 C1276.41666,84.6333345 1275.88334,84.9249983 1275.15,85.275 C1274.41666,85.6250017 1273.38334,86.033331 1272.05,86.5 C1271.41666,86.7333345 1270.90834,86.6416688 1270.525,86.225 C1270.14166,85.8083313 1269.95,85.333336 1269.95,84.8 C1269.95,84.5666655 1270.05,84.1083368 1270.25,83.425 C1270.45,82.7416633 1270.69167,82.000004 1270.975,81.2 C1271.25833,80.399996 1271.53333,79.6250038 1271.8,78.875 C1272.06667,78.1249962 1272.26667,77.5666685 1272.4,77.2 L1271.85,76.9 C1271.38333,77.6000035 1270.78334,78.4916612 1270.05,79.575 C1269.31666,80.6583387 1268.45834,81.7166615 1267.475,82.75 C1266.49166,83.7833385 1265.42501,84.666663 1264.275,85.4 C1263.12499,86.133337 1261.93334,86.5 1260.7,86.5 C1260.36667,86.5 1260.04167,86.4083342 1259.725,86.225 C1259.40833,86.0416657 1259.125,85.8250012 1258.875,85.575 C1258.625,85.3249987 1258.425,85.0583348 1258.275,84.775 C1258.125,84.4916652 1258.06667,84.250001 1258.1,84.05 C1258.1,83.516664 1258.15833,82.9666695 1258.275,82.4 C1258.39167,81.8333305 1258.575,81.183337 1258.825,80.45 C1259.075,79.716663 1259.39166,78.8916713 1259.775,77.975 C1260.15834,77.0583288 1260.6,75.9833395 1261.1,74.75 C1261.76667,73.083325 1262.26667,71.7250052 1262.6,70.675 C1262.93333,69.6249947 1263.1,68.933335 1263.1,68.6 C1263.1,68.0333305 1262.81667,67.75 1262.25,67.75 C1262.31667,67.75 1262.26667,67.7333335 1262.1,67.7 C1261.93333,67.6666665 1261.775,67.6083337 1261.625,67.525 C1261.475,67.4416662 1261.375,67.333334 1261.325,67.2 C1261.275,67.066666 1261.39167,66.8833345 1261.675,66.65 C1261.95833,66.4166655 1262.46666,66.133335 1263.2,65.8 C1263.93334,65.466665 1264.98333,65.0833355 1266.35,64.65 C1266.75,64.516666 1267.10833,64.5083327 1267.425,64.625 C1267.74167,64.7416673 1268.00833,64.9249988 1268.225,65.175 C1268.44167,65.4250013 1268.61667,65.716665 1268.75,66.05 C1268.88333,66.383335 1268.95,66.6999985 1268.95,67 C1268.95,67.5666695 1268.75,68.51666 1268.35,69.85 C1267.95,71.18334 1267.25,73.083321 1266.25,75.55 C1265.61666,77.083341 1265.10834,78.383328 1264.725,79.45 C1264.34166,80.516672 1264.15,81.283331 1264.15,81.75 C1264.15,82.016668 1264.24167,82.2333325 1264.425,82.4 C1264.60833,82.5666675 1264.8,82.65 1265,82.65 C1265.2,82.65 1265.6,82.3583362 1266.2,81.775 C1266.8,81.1916638 1267.45,80.4916707 1268.15,79.675 C1268.85,78.8583292 1269.53333,78.0250042 1270.2,77.175 C1270.86667,76.3249957 1271.35,75.6500025 1271.65,75.15 C1272.08334,74.416663 1272.45833,73.6916703 1272.775,72.975 C1273.09167,72.2583298 1273.43333,71.366672 1273.8,70.3 L1275.4,65.5 C1275.46667,65.2666655 1275.71666,65.15 1276.15,65.15 L1280.6,65.15 Z M1296.35,52.1 C1296.81667,52.1 1296.93333,52.399997 1296.7,53 L1286.7,81.05 C1286.43333,81.7500035 1286.33333,82.2833315 1286.4,82.65 C1286.46667,83.0166685 1286.73333,83.2 1287.2,83.2 C1287.33333,83.2 1287.50833,83.2583327 1287.725,83.375 C1287.94167,83.4916673 1288.11667,83.6416658 1288.25,83.825 C1288.38333,84.0083343 1288.41667,84.2166655 1288.35,84.45 C1288.28333,84.6833345 1288.05,84.9249988 1287.65,85.175 C1287.25,85.4250013 1286.64167,85.6666655 1285.825,85.9 C1285.00833,86.1333345 1283.88334,86.3333325 1282.45,86.5 C1282.18333,86.5333335 1281.925,86.483334 1281.675,86.35 C1281.425,86.216666 1281.2,86.0416678 1281,85.825 C1280.8,85.6083323 1280.63333,85.366668 1280.5,85.1 C1280.36667,84.833332 1280.3,84.600001 1280.3,84.4 C1280.3,84.199999 1280.35,83.9083352 1280.45,83.525 C1280.55,83.1416647 1280.675,82.7250023 1280.825,82.275 C1280.975,81.8249977 1281.125,81.3833355 1281.275,80.95 C1281.425,80.5166645 1281.56667,80.1166685 1281.7,79.75 L1291.25,52.1 L1296.35,52.1 Z" id="Pantriful"></path>
        </g>
    </g>
</svg>